####
#
# OBJ File Generated by Meshlab
#
####
# Object link_3.0.obj
#
# Vertices: 194
# Faces: 360
#
####
vn -1.517273 2.627993 3.665191
v 0.000500 -0.000866 0.015700
vn 0.000000 3.034545 -0.000000
v -0.000000 -0.001000 0.011400
vn -0.000000 3.034545 -0.000000
v -0.000000 -0.001000 0.015700
vn 1.517273 2.627993 -3.665191
v -0.000500 -0.000866 0.011400
vn 1.517273 2.627993 3.665191
v -0.000500 -0.000866 0.015700
vn 2.627993 1.517273 -3.665191
v -0.000866 -0.000500 0.011400
vn 2.627993 1.517273 3.665191
v -0.000866 -0.000500 0.015700
vn 3.034545 -0.000000 0.000000
v -0.001000 0.000000 0.011400
vn 3.034545 0.000000 0.000000
v -0.001000 0.000000 0.015700
vn 2.627993 -1.517273 -3.665192
v -0.000866 0.000500 0.011400
vn 2.627993 -1.517273 3.665191
v -0.000866 0.000500 0.015700
vn 1.517273 -2.627993 -3.665191
v -0.000500 0.000866 0.011400
vn 1.517273 -2.627993 3.665191
v -0.000500 0.000866 0.015700
vn -0.000000 -3.034545 -3.665192
v -0.000000 0.001000 0.011400
vn 0.000000 -3.034545 0.000000
v -0.000000 0.001000 0.015700
vn -1.517273 -2.627993 -3.665191
v 0.000500 0.000866 0.011400
vn -1.517273 -2.627993 3.665191
v 0.000500 0.000866 0.015700
vn -2.627993 -1.517273 -3.665191
v 0.000866 0.000500 0.011400
vn -2.627993 -1.517273 3.665191
v 0.000866 0.000500 0.015700
vn -3.034545 0.000000 -0.000000
v 0.001000 0.000000 0.011400
vn -3.034545 -0.000000 -0.000000
v 0.001000 0.000000 0.015700
vn -2.627993 1.517273 -3.665191
v 0.000866 -0.000500 0.011400
vn -2.627993 1.517273 3.665191
v 0.000866 -0.000500 0.015700
vn -1.517273 2.627993 -3.665191
v 0.000500 -0.000866 0.011400
vn -1.570798 -1.570796 1.570793
v -0.009800 -0.013450 0.015700
vn -1.570797 1.570796 1.570805
v -0.009800 0.013450 0.015700
vn 0.000000 0.000000 3.665191
v -0.001000 0.000000 0.015700
vn 1.570799 -1.570796 1.570798
v 0.009800 -0.013450 0.015700
vn 0.000000 0.000000 3.665192
v -0.000000 -0.001000 0.015700
vn 0.000000 0.000000 3.665192
v -0.000000 0.001000 0.015700
vn 1.570796 1.570796 1.570797
v 0.009800 0.013450 0.015700
vn 0.000000 0.000000 3.665191
v 0.001000 0.000000 0.015700
vn 1.823847 -2.827433 2.510311
v 0.002234 0.010450 0.003074
vn 0.958853 -2.827434 2.951047
v 0.001174 0.010450 0.003614
vn -2.510311 -2.827431 -1.823847
v -0.003074 0.010450 -0.002234
vn 0.000000 -2.827433 0.000000
v -0.000000 0.010450 0.003800
vn -1.823847 -2.827433 -2.510311
v -0.002234 0.010450 -0.003074
vn -0.958853 -2.827434 -2.951047
v -0.001174 0.010450 -0.003614
vn 0.000000 -2.827433 0.000000
v -0.000000 0.010450 -0.003800
vn 2.951047 -2.827434 -0.958853
v 0.003614 0.010450 -0.001174
vn 3.102914 -2.827433 -0.000000
v 0.003800 0.010450 -0.000000
vn 0.958853 -2.827433 -2.951047
v 0.001174 0.010450 -0.003614
vn 1.823847 -2.827433 -2.510311
v 0.002234 0.010450 -0.003074
vn 2.510311 -2.827433 -1.823847
v 0.003074 0.010450 -0.002234
vn 2.951047 -2.827434 0.958853
v 0.003614 0.010450 0.001174
vn 2.510311 -2.827433 1.823847
v 0.003074 0.010450 0.002234
vn -0.958853 -2.827434 2.951047
v -0.001174 0.010450 0.003614
vn -1.823847 -2.827433 2.510311
v -0.002234 0.010450 0.003074
vn -2.510311 -2.827433 1.823847
v -0.003074 0.010450 0.002234
vn -2.951047 -2.827433 0.958853
v -0.003614 0.010450 0.001174
vn 0.000000 -2.827433 0.000000
v -0.003800 0.010450 0.000000
vn -2.951047 -2.827434 -0.958853
v -0.003614 0.010450 -0.001174
vn 0.000000 -3.455752 0.000000
v 0.003800 0.011250 -0.000000
vn 2.951047 -3.455752 -0.958853
v 0.003614 0.011250 -0.001174
vn 2.214594 -2.984513 -2.214593
v 0.005699 0.011250 -0.002199
vn -2.510310 -2.827432 -1.823848
v -0.009227 0.011250 -0.005063
vn -1.823847 -2.827435 -2.510311
v -0.008563 0.011250 -0.005727
vn -2.510311 -3.455751 -1.823847
v -0.003074 0.011250 -0.002234
vn 1.840889 -2.984513 -2.533767
v 0.004029 0.011250 -0.003626
vn -3.122254 -2.984514 -0.245727
v -0.009800 0.011250 -0.003300
vn -2.951047 -3.455752 -0.958853
v -0.003614 0.011250 -0.001174
vn -3.102914 -3.455752 -0.000000
v -0.003800 0.011250 0.000000
vn -4.712389 -1.570797 -1.570795
v -0.009800 0.011250 0.011400
vn -2.951047 -3.455752 0.958853
v -0.003614 0.011250 0.001174
vn -2.510310 -3.455752 1.823847
v -0.003074 0.011250 0.002234
vn -1.823847 -3.455752 2.510311
v -0.002234 0.011250 0.003074
vn 2.510310 -3.455752 -1.823847
v 0.003074 0.011250 -0.002234
vn 1.823847 -3.455752 -2.510311
v 0.002234 0.011250 -0.003074
vn 1.421856 -2.984513 -2.790551
v 0.002156 0.011250 -0.004774
vn 0.958853 -3.455752 -2.951047
v 0.001174 0.011250 -0.003614
vn 0.967813 -2.984513 -2.978622
v 0.000126 0.011250 -0.005615
vn 0.000000 -3.455752 -3.102914
v -0.000000 0.011250 -0.003800
vn 0.489939 -2.984513 -3.093349
v -0.002010 0.011250 -0.006128
vn -0.958853 -3.455752 -2.951047
v -0.001174 0.011250 -0.003614
vn 0.123243 -3.063053 -3.136750
v -0.004200 0.011250 -0.006300
vn -1.823847 -3.455752 -2.510310
v -0.002234 0.011250 -0.003074
vn -0.245727 -2.984513 -3.122253
v -0.006800 0.011250 -0.006300
vn -0.958854 -2.827433 -2.951046
v -0.007727 0.011250 -0.006153
vn -2.951047 -2.827434 -0.958853
v -0.009653 0.011250 -0.004227
vn -0.958853 -3.455752 2.951047
v -0.001174 0.011250 0.003614
vn -0.000000 -3.455752 3.102914
v -0.000000 0.011250 0.003800
vn 4.712389 -1.570795 -1.570797
v 0.009800 0.011250 0.011400
vn 2.510311 -3.455752 1.823847
v 0.003074 0.011250 0.002234
vn 3.136750 -3.063053 -0.123244
v 0.009800 0.011250 0.007700
vn 1.823847 -3.455752 2.510310
v 0.002234 0.011250 0.003074
vn 0.958853 -3.455752 2.951047
v 0.001174 0.011250 0.003614
vn 2.533767 -2.984513 -1.840890
v 0.007126 0.011250 -0.000529
vn 2.790550 -2.984513 -1.421857
v 0.008274 0.011250 0.001344
vn 2.951047 -3.455751 0.958853
v 0.003614 0.011250 0.001174
vn 2.978622 -2.984513 -0.967813
v 0.009115 0.011250 0.003374
vn 3.093349 -2.984513 -0.489938
v 0.009628 0.011250 0.005510
vn 0.489939 2.984513 -3.093349
v -0.002010 0.013450 -0.006128
vn 0.123243 3.063053 -3.136750
v -0.004200 0.013450 -0.006300
vn 3.136750 3.063053 -0.123244
v 0.009800 0.013450 0.007700
vn -1.823847 2.827434 -2.510311
v -0.008563 0.013450 -0.005727
vn -2.510310 2.827432 -1.823848
v -0.009227 0.013450 -0.005063
vn -2.951047 2.827434 -0.958853
v -0.009653 0.013450 -0.004227
vn 3.093349 2.984513 -0.489938
v 0.009628 0.013450 0.005510
vn 2.978622 2.984513 -0.967813
v 0.009115 0.013450 0.003374
vn 2.790551 2.984513 -1.421857
v 0.008274 0.013450 0.001344
vn 2.533767 2.984513 -1.840890
v 0.007126 0.013450 -0.000529
vn 2.214593 2.984513 -2.214593
v 0.005699 0.013450 -0.002199
vn 1.840889 2.984513 -2.533767
v 0.004029 0.013450 -0.003626
vn -3.122253 2.984513 -0.245727
v -0.009800 0.013450 -0.003300
vn -0.245727 2.984513 -3.122253
v -0.006800 0.013450 -0.006300
vn -0.958854 2.827433 -2.951046
v -0.007727 0.013450 -0.006153
vn 1.421857 2.984513 -2.790551
v 0.002156 0.013450 -0.004774
vn 0.967813 2.984513 -2.978622
v 0.000126 0.013450 -0.005615
vn -3.102914 0.000000 0.000000
v -0.003800 0.010450 0.000000
vn 0.000000 0.000000 3.102914
v -0.000000 0.010450 0.003800
vn 3.102914 -0.000000 0.000000
v 0.003800 0.011250 -0.000000
vn -0.000000 -0.000000 -3.102914
v -0.000000 0.010450 -0.003800
vn 4.712389 1.570796 -1.570796
v 0.009800 -0.011050 0.011400
vn 0.000000 0.000000 -3.665192
v 0.001000 0.000000 0.011400
vn -4.712389 1.570796 -1.570793
v -0.009800 -0.011050 0.011400
vn 0.000000 0.000000 -3.665192
v -0.000000 -0.001000 0.011400
vn 0.000000 0.000000 -3.665191
v -0.001000 0.000000 0.011400
vn 1.570796 1.570796 -1.570797
v 0.009800 -0.011050 0.009700
vn -1.570796 1.570796 -1.570796
v -0.009800 -0.011050 0.009700
vn 2.907282 2.792528 -1.058164
v 0.002819 -0.009750 -0.001026
vn 2.370038 2.792527 -1.988698
v 0.002298 -0.009750 -0.001928
vn 1.546932 2.792528 -2.679365
v 0.001500 -0.009750 -0.002598
vn 2.370038 2.792528 1.988698
v 0.002298 -0.009750 0.001928
vn -2.370038 2.792527 -1.988698
v -0.002298 -0.009750 -0.001928
vn -2.907282 2.792527 -1.058164
v -0.002819 -0.009750 -0.001026
vn -3.093865 2.792527 0.000000
v -0.003000 -0.009750 0.000000
vn -2.907282 2.792527 1.058164
v -0.002819 -0.009750 0.001026
vn -2.370038 2.792527 1.988698
v -0.002298 -0.009750 0.001928
vn 0.000000 2.792527 0.000000
v 0.003000 -0.009750 0.000000
vn 2.907282 2.792527 1.058164
v 0.002819 -0.009750 0.001026
vn 0.537244 2.792527 -3.046862
v 0.000521 -0.009750 -0.002954
vn -0.537244 2.792527 -3.046862
v -0.000521 -0.009750 -0.002954
vn -1.546933 2.792527 -2.679365
v -0.001500 -0.009750 -0.002598
vn 0.537244 2.792527 3.046862
v 0.000521 -0.009750 0.002954
vn 1.546933 2.792527 2.679365
v 0.001500 -0.009750 0.002598
vn -0.537244 2.792526 3.046862
v -0.000521 -0.009750 0.002954
vn -1.546932 2.792527 2.679365
v -0.001500 -0.009750 0.002598
vn 3.136750 -3.063053 -0.123244
v 0.009800 -0.013450 0.007700
vn 0.123243 -3.063053 -3.136750
v -0.004200 -0.013450 -0.006300
vn -3.122254 -2.984513 -0.245727
v -0.009800 -0.013450 -0.003300
vn 3.093349 -2.984513 -0.489938
v 0.009628 -0.013450 0.005510
vn 0.489938 -2.984513 -3.093349
v -0.002010 -0.013450 -0.006128
vn 0.967813 -2.984513 -2.978622
v 0.000126 -0.013450 -0.005615
vn 1.421856 -2.984513 -2.790551
v 0.002156 -0.013450 -0.004774
vn -2.510310 -2.827432 -1.823848
v -0.009227 -0.013450 -0.005063
vn -1.823847 -2.827434 -2.510311
v -0.008563 -0.013450 -0.005727
vn -2.951047 -2.827434 -0.958853
v -0.009653 -0.013450 -0.004227
vn -0.958854 -2.827433 -2.951047
v -0.007727 -0.013450 -0.006153
vn -0.245727 -2.984513 -3.122254
v -0.006800 -0.013450 -0.006300
vn 1.840890 -2.984513 -2.533767
v 0.004029 -0.013450 -0.003626
vn 2.214594 -2.984513 -2.214594
v 0.005699 -0.013450 -0.002199
vn 2.533767 -2.984513 -1.840890
v 0.007126 -0.013450 -0.000529
vn 2.790550 -2.984513 -1.421857
v 0.008274 -0.013450 0.001344
vn 2.978622 -2.984513 -0.967813
v 0.009115 -0.013450 0.003374
vn 4.712389 1.570797 -1.570796
v 0.009800 -0.011450 0.009700
vn 3.136750 3.063053 -0.123244
v 0.009800 -0.011450 0.007700
vn 2.370038 3.490659 1.988698
v 0.002298 -0.011450 0.001928
vn 3.093349 2.984514 -0.489938
v 0.009628 -0.011450 0.005510
vn 2.907282 3.490658 1.058164
v 0.002819 -0.011450 0.001026
vn 1.546932 3.490659 2.679365
v 0.001500 -0.011450 0.002598
vn 0.537244 3.490659 3.046862
v 0.000521 -0.011450 0.002954
vn -4.712389 1.570799 -1.570797
v -0.009800 -0.011450 0.009700
vn -0.537244 3.490659 3.046862
v -0.000521 -0.011450 0.002954
vn -1.546932 3.490659 2.679365
v -0.001500 -0.011450 0.002598
vn -2.370038 3.490658 1.988698
v -0.002298 -0.011450 0.001928
vn -2.907282 3.490658 1.058164
v -0.002819 -0.011450 0.001026
vn -3.122254 2.984513 -0.245727
v -0.009800 -0.011450 -0.003300
vn -2.370038 3.490659 -1.988698
v -0.002298 -0.011450 -0.001928
vn -0.958854 2.827433 -2.951047
v -0.007727 -0.011450 -0.006153
vn -1.823847 2.827435 -2.510311
v -0.008563 -0.011450 -0.005727
vn 0.000000 3.490659 0.000000
v -0.003000 -0.011450 0.000000
vn -2.907282 3.490659 -1.058164
v -0.002819 -0.011450 -0.001026
vn -2.951047 2.827434 -0.958853
v -0.009653 -0.011450 -0.004227
vn -2.510310 2.827432 -1.823848
v -0.009227 -0.011450 -0.005063
vn 2.978622 2.984513 -0.967813
v 0.009115 -0.011450 0.003374
vn 2.790550 2.984513 -1.421857
v 0.008274 -0.011450 0.001344
vn 0.000000 3.490658 0.000000
v 0.003000 -0.011450 0.000000
vn 2.533767 2.984513 -1.840890
v 0.007126 -0.011450 -0.000529
vn 2.907282 3.490658 -1.058164
v 0.002819 -0.011450 -0.001026
vn 2.214594 2.984513 -2.214594
v 0.005699 -0.011450 -0.002199
vn 2.370038 3.490658 -1.988698
v 0.002298 -0.011450 -0.001928
vn 1.840889 2.984513 -2.533767
v 0.004029 -0.011450 -0.003626
vn 1.546932 3.490659 -2.679365
v 0.001500 -0.011450 -0.002598
vn 1.421857 2.984513 -2.790551
v 0.002156 -0.011450 -0.004774
vn 0.537244 3.490659 -3.046862
v 0.000521 -0.011450 -0.002954
vn 0.967813 2.984513 -2.978622
v 0.000126 -0.011450 -0.005615
vn -0.537244 3.490658 -3.046862
v -0.000521 -0.011450 -0.002954
vn 0.489938 2.984513 -3.093349
v -0.002010 -0.011450 -0.006128
vn -1.546932 3.490659 -2.679365
v -0.001500 -0.011450 -0.002598
vn 0.123243 3.063054 -3.136751
v -0.004200 -0.011450 -0.006300
vn -0.245727 2.984513 -3.122254
v -0.006800 -0.011450 -0.006300
vn 3.093865 0.000000 -0.000000
v 0.003000 -0.009750 0.000000
vn 3.093865 0.000000 0.000000
v 0.003000 -0.011450 0.000000
vn -3.093865 -0.000000 -0.000000
v -0.003000 -0.011450 0.000000
# 194 vertices, 0 vertices normals

f 1//1 2//2 3//3
f 3//3 2//2 4//4
f 3//3 4//4 5//5
f 5//5 4//4 6//6
f 5//5 6//6 7//7
f 7//7 6//6 8//8
f 7//7 8//8 9//9
f 9//9 8//8 10//10
f 9//9 10//10 11//11
f 11//11 10//10 12//12
f 11//11 12//12 13//13
f 13//13 12//12 14//14
f 13//13 14//14 15//15
f 15//15 14//14 16//16
f 15//15 16//16 17//17
f 17//17 16//16 18//18
f 17//17 18//18 19//19
f 19//19 18//18 20//20
f 19//19 20//20 21//21
f 21//21 20//20 22//22
f 21//21 22//22 23//23
f 23//23 22//22 24//24
f 23//23 24//24 1//1
f 1//1 24//24 2//2
f 25//25 5//5 7//7
f 25//25 7//7 26//26
f 26//26 7//7 27//27
f 26//26 27//27 11//11
f 28//28 1//1 25//25
f 25//25 1//1 29//29
f 25//25 29//29 5//5
f 11//11 13//13 26//26
f 26//26 13//13 30//30
f 26//26 30//30 31//31
f 31//31 30//30 17//17
f 17//17 19//19 31//31
f 31//31 19//19 32//32
f 31//31 32//32 28//28
f 28//28 32//32 23//23
f 28//28 23//23 1//1
f 33//33 34//34 35//35
f 35//35 34//34 36//36
f 37//37 38//38 39//39
f 40//40 41//41 35//35
f 39//39 42//42 37//37
f 37//37 42//42 43//43
f 37//37 43//43 35//35
f 35//35 43//43 44//44
f 35//35 44//44 40//40
f 41//41 45//45 35//35
f 35//35 45//45 46//46
f 35//35 46//46 33//33
f 36//36 47//47 35//35
f 35//35 47//47 48//48
f 35//35 48//48 49//49
f 49//49 50//50 35//35
f 35//35 50//50 51//51
f 35//35 51//51 52//52
f 53//53 54//54 55//55
f 56//56 57//57 58//58
f 55//55 54//54 59//59
f 60//60 61//61 62//62
f 60//60 62//62 63//63
f 62//62 64//64 63//63
f 63//63 64//64 65//65
f 63//63 65//65 66//66
f 54//54 67//67 59//59
f 59//59 67//67 68//68
f 59//59 68//68 69//69
f 69//69 68//68 70//70
f 69//69 70//70 71//71
f 71//71 70//70 72//72
f 71//71 72//72 73//73
f 73//73 72//72 74//74
f 73//73 74//74 75//75
f 75//75 74//74 76//76
f 75//75 76//76 77//77
f 77//77 76//76 58//58
f 77//77 58//58 78//78
f 78//78 58//58 57//57
f 61//61 60//60 58//58
f 58//58 60//60 79//79
f 58//58 79//79 56//56
f 66//66 80//80 63//63
f 63//63 80//80 81//81
f 63//63 81//81 82//82
f 83//83 84//84 85//85
f 85//85 84//84 82//82
f 85//85 82//82 86//86
f 86//86 82//82 81//81
f 55//55 87//87 53//53
f 53//53 87//87 88//88
f 53//53 88//88 89//89
f 89//89 88//88 90//90
f 89//89 90//90 83//83
f 83//83 90//90 91//91
f 83//83 91//91 84//84
f 92//92 93//93 26//26
f 26//26 31//31 94//94
f 95//95 96//96 97//97
f 94//94 98//98 26//26
f 26//26 98//98 99//99
f 26//26 99//99 100//100
f 100//100 101//101 26//26
f 26//26 101//101 102//102
f 26//26 102//102 103//103
f 26//26 93//93 104//104
f 104//104 93//93 105//105
f 104//104 105//105 97//97
f 97//97 105//105 106//106
f 97//97 106//106 95//95
f 103//103 107//107 26//26
f 26//26 107//107 108//108
f 26//26 108//108 92//92
f 75//75 93//93 92//92
f 75//75 92//92 73//73
f 73//73 92//92 108//108
f 73//73 108//108 71//71
f 71//71 108//108 107//107
f 71//71 107//107 69//69
f 69//69 107//107 103//103
f 69//69 103//103 59//59
f 59//59 103//103 102//102
f 59//59 102//102 55//55
f 55//55 102//102 101//101
f 55//55 101//101 87//87
f 87//87 101//101 100//100
f 87//87 100//100 88//88
f 88//88 100//100 99//99
f 88//88 99//99 90//90
f 90//90 99//99 98//98
f 90//90 98//98 91//91
f 91//91 98//98 94//94
f 91//91 94//94 84//84
f 93//93 75//75 105//105
f 105//105 75//75 77//77
f 60//60 104//104 97//97
f 60//60 97//97 79//79
f 79//79 97//97 96//96
f 79//79 96//96 56//56
f 56//56 96//96 95//95
f 56//56 95//95 57//57
f 57//57 95//95 106//106
f 57//57 106//106 78//78
f 78//78 106//106 105//105
f 78//78 105//105 77//77
f 61//61 109//109 62//62
f 62//62 109//109 50//50
f 62//62 50//50 64//64
f 64//64 50//50 49//49
f 64//64 49//49 65//65
f 65//65 49//49 48//48
f 65//65 48//48 66//66
f 66//66 48//48 47//47
f 66//66 47//47 80//80
f 80//80 47//47 110//110
f 80//80 110//110 81//81
f 81//81 110//110 34//34
f 81//81 34//34 86//86
f 86//86 34//34 33//33
f 86//86 33//33 85//85
f 85//85 33//33 46//46
f 85//85 46//46 83//83
f 83//83 46//46 45//45
f 83//83 45//45 89//89
f 89//89 45//45 41//41
f 89//89 41//41 111//111
f 111//111 41//41 40//40
f 111//111 40//40 54//54
f 54//54 40//40 44//44
f 54//54 44//44 67//67
f 67//67 44//44 43//43
f 67//67 43//43 68//68
f 68//68 43//43 42//42
f 68//68 42//42 70//70
f 70//70 42//42 112//112
f 70//70 112//112 72//72
f 72//72 112//112 38//38
f 72//72 38//38 74//74
f 74//74 38//38 37//37
f 74//74 37//37 76//76
f 76//76 37//37 35//35
f 76//76 35//35 58//58
f 58//58 35//35 52//52
f 58//58 52//52 61//61
f 61//61 52//52 109//109
f 113//113 22//22 114//114
f 113//113 114//114 82//82
f 6//6 4//4 115//115
f 115//115 4//4 116//116
f 115//115 116//116 113//113
f 113//113 116//116 24//24
f 113//113 24//24 22//22
f 114//114 18//18 82//82
f 82//82 18//18 16//16
f 82//82 16//16 63//63
f 63//63 16//16 14//14
f 14//14 12//12 63//63
f 63//63 12//12 10//10
f 63//63 10//10 115//115
f 115//115 10//10 117//117
f 115//115 117//117 6//6
f 118//118 119//119 113//113
f 113//113 119//119 115//115
f 120//120 121//121 122//122
f 123//123 124//124 125//125
f 125//125 126//126 123//123
f 123//123 126//126 127//127
f 123//123 127//127 128//128
f 129//129 120//120 130//130
f 130//130 120//120 122//122
f 130//130 122//122 123//123
f 123//123 122//122 131//131
f 131//131 132//132 123//123
f 123//123 132//132 133//133
f 123//123 133//133 124//124
f 134//134 135//135 136//136
f 136//136 135//135 123//123
f 136//136 123//123 137//137
f 137//137 123//123 128//128
f 138//138 28//28 25//25
f 139//139 25//25 140//140
f 138//138 25//25 141//141
f 139//139 142//142 25//25
f 25//25 142//142 143//143
f 25//25 143//143 144//144
f 145//145 146//146 147//147
f 147//147 146//146 148//148
f 147//147 148//148 140//140
f 140//140 148//148 149//149
f 140//140 149//149 139//139
f 144//144 150//150 25//25
f 25//25 150//150 151//151
f 25//25 151//151 152//152
f 152//152 153//153 25//25
f 25//25 153//153 154//154
f 25//25 154//154 141//141
f 155//155 156//156 157//157
f 157//157 156//156 158//158
f 157//157 158//158 159//159
f 157//157 160//160 155//155
f 155//155 160//160 161//161
f 155//155 161//161 162//162
f 162//162 161//161 163//163
f 162//162 163//163 164//164
f 164//164 165//165 162//162
f 162//162 165//165 166//166
f 162//162 166//166 167//167
f 168//168 169//169 170//170
f 166//166 171//171 167//167
f 167//167 171//171 172//172
f 167//167 172//172 173//173
f 173//173 172//172 168//168
f 173//173 168//168 174//174
f 174//174 168//168 170//170
f 158//158 175//175 159//159
f 159//159 175//175 176//176
f 159//159 176//176 177//177
f 177//177 176//176 178//178
f 177//177 178//178 179//179
f 179//179 178//178 180//180
f 179//179 180//180 181//181
f 181//181 180//180 182//182
f 181//181 182//182 183//183
f 183//183 182//182 184//184
f 183//183 184//184 185//185
f 185//185 184//184 186//186
f 185//185 186//186 187//187
f 187//187 186//186 188//188
f 187//187 188//188 189//189
f 189//189 188//188 190//190
f 189//189 190//190 168//168
f 168//168 190//190 191//191
f 168//168 191//191 169//169
f 139//139 190//190 188//188
f 139//139 188//188 142//142
f 142//142 188//188 186//186
f 142//142 186//186 143//143
f 143//143 186//186 184//184
f 143//143 184//184 144//144
f 144//144 184//184 182//182
f 144//144 182//182 150//150
f 150//150 182//182 180//180
f 150//150 180//180 151//151
f 151//151 180//180 178//178
f 151//151 178//178 152//152
f 152//152 178//178 176//176
f 152//152 176//176 153//153
f 153//153 176//176 175//175
f 153//153 175//175 154//154
f 154//154 175//175 158//158
f 154//154 158//158 141//141
f 141//141 158//158 156//156
f 141//141 156//156 138//138
f 140//140 167//167 173//173
f 140//140 173//173 147//147
f 147//147 173//173 174//174
f 147//147 174//174 145//145
f 145//145 174//174 170//170
f 145//145 170//170 146//146
f 146//146 170//170 169//169
f 146//146 169//169 148//148
f 148//148 169//169 191//191
f 148//148 191//191 149//149
f 115//115 25//25 63//63
f 63//63 25//25 26//26
f 63//63 26//26 60//60
f 60//60 26//26 104//104
f 167//167 140//140 162//162
f 162//162 140//140 25//25
f 162//162 25//25 119//119
f 119//119 25//25 115//115
f 119//119 118//118 162//162
f 162//162 118//118 155//155
f 138//138 156//156 28//28
f 28//28 156//156 155//155
f 84//84 94//94 82//82
f 82//82 94//94 31//31
f 82//82 31//31 113//113
f 113//113 31//31 28//28
f 113//113 28//28 118//118
f 118//118 28//28 155//155
f 149//149 191//191 139//139
f 139//139 191//191 190//190
f 179//179 192//192 193//193
f 193//193 192//192 130//130
f 193//193 130//130 159//159
f 159//159 130//130 123//123
f 159//159 123//123 157//157
f 157//157 123//123 135//135
f 157//157 135//135 160//160
f 160//160 135//135 134//134
f 160//160 134//134 161//161
f 161//161 134//134 136//136
f 161//161 136//136 163//163
f 163//163 136//136 137//137
f 163//163 137//137 164//164
f 164//164 137//137 128//128
f 164//164 128//128 165//165
f 165//165 128//128 127//127
f 165//165 127//127 166//166
f 166//166 127//127 126//126
f 166//166 126//126 194//194
f 194//194 126//126 125//125
f 194//194 125//125 172//172
f 172//172 125//125 124//124
f 172//172 124//124 168//168
f 168//168 124//124 133//133
f 168//168 133//133 189//189
f 189//189 133//133 132//132
f 189//189 132//132 187//187
f 187//187 132//132 131//131
f 187//187 131//131 185//185
f 185//185 131//131 122//122
f 185//185 122//122 183//183
f 183//183 122//122 121//121
f 183//183 121//121 181//181
f 181//181 121//121 120//120
f 181//181 120//120 179//179
f 179//179 120//120 192//192
# 360 faces, 0 coords texture

# End of File
