####
#
# OBJ File Generated by Meshlab
#
####
# Object textured_vhacd.obj
#
# Vertices: 64
# Faces: 124
#
####
vn -0.776996 -5.502770 1.725309
v -0.005444 -0.032137 0.009255
vn 0.790368 5.814505 0.885023
v 0.004359 0.033778 0.000535
vn 0.844344 5.875383 -0.841875
v 0.004359 0.033778 -0.003264
vn 5.701682 -0.999560 0.464722
v 0.033781 -0.004896 0.001624
vn -1.108123 -0.932193 -5.660481
v -0.007084 -0.005989 -0.033236
vn -3.930142 1.381999 4.168544
v -0.022887 0.007080 0.023965
vn 2.257567 0.684071 5.364378
v 0.013620 0.003813 0.030507
vn -5.389775 0.272485 -2.134979
v -0.032147 0.001088 -0.013080
vn 3.763055 -1.279707 -4.270471
v 0.022338 -0.007079 -0.025612
vn 0.264939 -5.337675 -2.243864
v 0.002176 -0.032137 -0.012535
vn -2.139848 4.329137 -3.048354
v -0.013620 0.026160 -0.018532
vn 2.894225 3.303593 -3.687710
v 0.016887 0.020710 -0.022344
vn -4.632890 -3.481390 -0.623437
v -0.026703 -0.021246 -0.004904
vn 1.691195 -3.613835 3.938040
v 0.010352 -0.021238 0.025055
vn 4.107498 3.833160 1.527528
v 0.025063 0.021802 0.008710
vn -2.188275 4.680728 2.385735
v -0.013077 0.027793 0.015246
vn 3.494231 -4.612600 -0.140318
v 0.020161 -0.027786 -0.001092
vn -2.683775 -2.159947 4.756879
v -0.015253 -0.012522 0.027233
vn -5.503150 1.533494 1.416823
v -0.032147 0.008713 0.007621
vn 0.494117 2.903670 5.026729
v 0.003268 0.018528 0.028329
vn 4.920973 -1.173730 2.961613
v 0.027788 -0.007621 0.017975
vn -0.803790 1.880461 -5.492000
v -0.004359 0.011987 -0.032147
vn -1.466296 -3.424487 -4.329569
v -0.009260 -0.020154 -0.026701
vn -4.736833 -2.656331 2.171486
v -0.027788 -0.015246 0.011978
vn 5.184202 1.882259 -2.051242
v 0.029971 0.011445 -0.012535
vn -3.544924 4.532101 -0.453622
v -0.021253 0.026702 -0.004360
vn -0.431816 -0.195827 5.814249
v -0.003268 -0.001081 0.033237
vn 1.790876 -3.586271 -4.158216
v 0.011443 -0.021238 -0.025067
vn -3.491970 -0.626231 -4.523994
v -0.020704 -0.003263 -0.027790
vn 1.851411 0.497320 -5.429693
v 0.011443 0.002173 -0.032698
vn 4.640263 -2.587681 -2.208526
v 0.027246 -0.015246 -0.014713
vn -4.396561 2.442946 -2.825872
v -0.026703 0.014712 -0.016892
vn 1.753171 4.792258 2.623845
v 0.010894 0.027787 0.016879
vn 4.485106 1.586531 3.385525
v 0.026154 0.010896 0.019058
vn 3.045752 4.784006 -0.838655
v 0.019070 0.028335 -0.005993
vn -2.074513 -5.110844 -1.589023
v -0.013077 -0.030504 -0.009812
vn 0.642008 4.966300 -2.972807
v 0.004359 0.028878 -0.018525
vn -2.510372 -4.126861 3.213687
v -0.014711 -0.024518 0.018520
vn -3.799277 -3.214481 -3.081534
v -0.022887 -0.019070 -0.017443
vn 4.471868 -3.283136 1.427891
v 0.026697 -0.019612 0.008159
vn 1.897944 -5.172408 1.928274
v 0.011443 -0.030510 0.009255
vn -5.786024 -0.713602 0.597466
v -0.033781 -0.003256 0.003803
vn 5.547158 1.387904 1.189604
v 0.032147 0.009262 0.007077
vn -1.856662 2.303501 5.033104
v -0.010894 0.013621 0.028873
vn -3.278063 -4.750898 0.887541
v -0.019619 -0.027779 0.004347
vn -4.092866 3.262023 2.440725
v -0.024520 0.019076 0.014156
vn 4.442962 0.698566 -3.665920
v 0.026697 0.003813 -0.021799
vn -4.859518 -0.499451 3.192913
v -0.028879 -0.002173 0.017968
vn -2.730463 1.778580 -4.795257
v -0.016345 0.010354 -0.028879
vn -1.274569 5.692395 -0.443955
v -0.006535 0.033236 -0.003808
vn -0.507074 -3.466629 4.562455
v -0.003268 -0.020696 0.026695
vn 1.688613 -1.408780 5.485600
v 0.011443 -0.008706 0.030507
vn 0.460629 3.091592 -4.853499
v 0.002719 0.018528 -0.029430
vn 1.081609 -1.998907 -5.427835
v 0.007084 -0.011979 -0.031609
vn -5.319858 2.469858 -0.372314
v -0.031062 0.014163 -0.003270
vn 2.851676 2.800651 4.258856
v 0.016887 0.016894 0.024510
vn 2.765110 -4.557409 -2.421456
v 0.015802 -0.026694 -0.015258
vn 0.698318 -5.844991 -0.218184
v 0.004359 -0.033778 -0.002719
vn 5.706990 -0.459124 -1.330946
v 0.033238 -0.002715 -0.007634
vn 4.868225 3.132009 -1.012460
v 0.028337 0.018528 -0.006538
vn -5.293993 -1.574120 -2.024891
v -0.031062 -0.008163 -0.012535
vn -2.766350 -0.318791 5.214895
v -0.016345 -0.001629 0.029411
vn -0.752053 4.614533 3.446777
v -0.004901 0.026695 0.020691
vn 3.778817 -1.570556 4.135078
v 0.022338 -0.009255 0.023972
# 64 vertices, 0 vertices normals

f 52//52 14//14 64//64
f 7//7 20//20 27//27
f 10//10 23//23 28//28
f 5//5 23//23 29//29
f 5//5 22//22 30//30
f 28//28 9//9 31//31
f 26//26 11//11 32//32
f 29//29 8//8 32//32
f 3//3 2//2 35//35
f 2//2 33//33 35//35
f 33//33 15//15 35//35
f 23//23 10//10 36//36
f 3//3 35//35 37//37
f 35//35 12//12 37//37
f 18//18 24//24 38//38
f 29//29 23//23 39//39
f 36//36 13//13 39//39
f 23//23 36//36 39//39
f 4//4 21//21 40//40
f 31//31 4//4 40//40
f 17//17 31//31 40//40
f 14//14 1//1 41//41
f 40//40 14//14 41//41
f 17//17 40//40 41//41
f 13//13 24//24 42//42
f 21//21 4//4 43//43
f 15//15 34//34 43//43
f 34//34 21//21 43//43
f 27//27 20//20 44//44
f 24//24 13//13 45//45
f 36//36 1//1 45//45
f 13//13 36//36 45//45
f 1//1 38//38 45//45
f 38//38 24//24 45//45
f 19//19 6//6 46//46
f 16//16 26//26 46//46
f 6//6 44//44 46//46
f 44//44 16//16 46//46
f 12//12 25//25 47//47
f 9//9 30//30 47//47
f 30//30 12//12 47//47
f 31//31 9//9 47//47
f 6//6 19//19 48//48
f 24//24 18//18 48//48
f 19//19 42//42 48//48
f 42//42 24//24 48//48
f 22//22 5//5 49//49
f 11//11 22//22 49//49
f 5//5 29//29 49//49
f 32//32 11//11 49//49
f 29//29 32//32 49//49
f 2//2 3//3 50//50
f 16//16 2//2 50//50
f 11//11 26//26 50//50
f 26//26 16//16 50//50
f 3//3 37//37 50//50
f 37//37 11//11 50//50
f 1//1 14//14 51//51
f 27//27 18//18 51//51
f 38//38 1//1 51//51
f 18//18 38//38 51//51
f 7//7 27//27 52//52
f 51//51 14//14 52//52
f 27//27 51//51 52//52
f 22//22 11//11 53//53
f 12//12 30//30 53//53
f 30//30 22//22 53//53
f 11//11 37//37 53//53
f 37//37 12//12 53//53
f 23//23 5//5 54//54
f 9//9 28//28 54//54
f 28//28 23//23 54//54
f 30//30 9//9 54//54
f 5//5 30//30 54//54
f 32//32 8//8 55//55
f 26//26 32//32 55//55
f 8//8 42//42 55//55
f 42//42 19//19 55//55
f 19//19 46//46 55//55
f 46//46 26//26 55//55
f 20//20 7//7 56//56
f 15//15 33//33 56//56
f 33//33 20//20 56//56
f 34//34 15//15 56//56
f 7//7 34//34 56//56
f 10//10 28//28 57//57
f 31//31 17//17 57//57
f 28//28 31//31 57//57
f 1//1 36//36 58//58
f 36//36 10//10 58//58
f 41//41 1//1 58//58
f 17//17 41//41 58//58
f 10//10 57//57 58//58
f 57//57 17//17 58//58
f 4//4 31//31 59//59
f 43//43 4//4 59//59
f 25//25 43//43 59//59
f 47//47 25//25 59//59
f 31//31 47//47 59//59
f 25//25 12//12 60//60
f 12//12 35//35 60//60
f 35//35 15//15 60//60
f 43//43 25//25 60//60
f 15//15 43//43 60//60
f 8//8 29//29 61//61
f 39//39 13//13 61//61
f 29//29 39//39 61//61
f 42//42 8//8 61//61
f 13//13 42//42 61//61
f 18//18 27//27 62//62
f 44//44 6//6 62//62
f 27//27 44//44 62//62
f 6//6 48//48 62//62
f 48//48 18//18 62//62
f 2//2 16//16 63//63
f 33//33 2//2 63//63
f 20//20 33//33 63//63
f 16//16 44//44 63//63
f 44//44 20//20 63//63
f 34//34 7//7 64//64
f 21//21 34//34 64//64
f 14//14 40//40 64//64
f 40//40 21//21 64//64
f 7//7 52//52 64//64
# 124 faces, 0 coords texture

# End of File
